<svg xmlns="http://www.w3.org/2000/svg" viewBox="0 0 919 150" width="919" height="150">
	<style>
		tspan { white-space:pre }
	</style>
	<path fill="#f8f4ff" d="M-0.25 114L56.6 114L56.6 96L20.75 96L20.75 9L-0.25 9ZM138.35 104.7L138.35 48.3L120.95 38.25L89 38.25L71.6 48.3L71.6 104.7L89 114.75L120.95 114.75ZM92.15 55.8L117.8 55.8L117.8 97.2L92.15 97.2ZM192.05 38.25L181.4 44.4L181.4 4.5L160.85 4.5L160.85 114.75L170.75 114.75L181.4 108.6L192.05 114.75L211.7 114.75L229.1 104.7L229.1 48.3L211.7 38.25ZM181.4 55.8L208.55 55.8L208.55 97.2L181.4 97.2ZM272.15 39L251.6 39L251.6 114L272.15 114ZM250.85 25.05L272.9 25.05L272.9 4.5L250.85 4.5ZM294.65 104.7L312.05 114.75L330.2 114.75L340.85 108.6L344.45 114.75L361.4 114.75L361.4 39L340.85 39L340.85 97.2L315.2 97.2L315.2 39L294.65 39ZM489.35 48.3L471.95 38.25L457.55 38.25L443.45 46.35L429.5 38.25L415.1 38.25L404.45 44.4L400.85 38.25L383.9 38.25L383.9 114L404.45 114L404.45 55.8L426.35 55.8L426.35 114L446.9 114L446.9 55.8L468.8 55.8L468.8 114L489.35 114ZM621.16 114L613.17 76.21L569.66 76.21L547.84 114L539.56 114L602.2 6.48L606.96 6.48L629.58 114L621.16 114ZM595.61 31.02L573.6 69.47L611.9 69.47L604.35 30.87Q603.35 26.33 602.25 18.27Q598.99 25.3 595.61 31.02ZM670.9 0.04L650.16 114L642.91 114L663.65 0.04L670.9 0.04ZM710.61 115.46Q692.23 115.46 686.31 101.7L685.8 101.7L684.9 107.85Q684.2 113.27 683.03 119.71L677.51 150.04L670.26 150.04L691.31 34.39L697.46 34.39L696.79 45.74L697.23 45.74Q707.77 32.85 725.79 32.85Q741.91 32.85 748.4 43.47Q754.97 54.01 751.29 74.23Q747.72 93.86 736.81 104.7Q725.99 115.46 710.61 115.46ZM711.64 109.02Q723.87 109.02 732.19 99.94Q740.58 90.86 743.55 74.52Q749.93 39.44 724.59 39.44Q710.68 39.44 702.76 47.13Q694.85 54.75 691.71 72.03L691.28 74.38Q687.88 93.05 692.66 101.04Q697.5 109.02 711.64 109.02ZM828.8 114L821.62 114L831.02 62.36Q833.2 50.35 829.13 44.93Q825.08 39.44 814.46 39.44Q800.18 39.44 792.19 46.69Q784.3 53.87 781.35 70.05L773.35 114L766.1 114L786.84 0.04L794.09 0.04L787.49 36.29L785.28 46.47L785.79 46.47Q791.56 39.29 798.96 36.07Q806.36 32.85 816.47 32.85Q843.57 32.85 838.27 61.92L828.8 114ZM908.27 114L902.92 114L903.38 101.4L902.79 101.4Q895.39 109.09 888.43 112.32Q881.56 115.46 872.92 115.46Q861.2 115.46 855.77 109.46Q850.35 103.45 852.28 92.83Q854.4 81.19 865.24 74.74Q876.15 68.3 894.6 67.93L909.84 67.49L910.8 62.22Q912.87 50.87 909.31 45.08Q905.75 39.29 895.49 39.29Q884.43 39.29 871.45 45.45L869.89 39.15Q884.12 32.99 896.93 32.99Q910.04 32.99 915.25 39.81Q920.53 46.62 917.9 61.05L908.27 114ZM874.56 108.87Q887.3 108.87 895.94 101.62Q904.67 94.3 907.03 81.33L908.46 73.5L894.44 74.08Q877.52 74.89 869.53 79.36Q861.62 83.75 859.92 93.13Q858.56 100.6 862.34 104.77Q866.21 108.87 874.56 108.87Z" />
</svg>