<svg xmlns="http://www.w3.org/2000/svg" viewBox="0 0 507 274" width="507" height="274">
	<style>
		tspan { white-space:pre }
	</style>
	<path fill="#ffe302" d="M9.95 110L66.8 110L66.8 92L30.95 92L30.95 5L9.95 5ZM148.55 100.7L148.55 44.3L131.15 34.25L99.2 34.25L81.8 44.3L81.8 100.7L99.2 110.75L131.15 110.75ZM102.35 51.8L128 51.8L128 93.2L102.35 93.2ZM202.25 34.25L191.6 40.4L191.6 0.5L171.05 0.5L171.05 110.75L180.95 110.75L191.6 104.6L202.25 110.75L221.9 110.75L239.3 100.7L239.3 44.3L221.9 34.25ZM191.6 51.8L218.75 51.8L218.75 93.2L191.6 93.2ZM282.35 35L261.8 35L261.8 110L282.35 110ZM261.05 21.05L283.1 21.05L283.1 0.5L261.05 0.5ZM304.85 100.7L322.25 110.75L340.4 110.75L351.05 104.6L354.65 110.75L371.6 110.75L371.6 35L351.05 35L351.05 93.2L325.4 93.2L325.4 35L304.85 35ZM499.55 44.3L482.15 34.25L467.75 34.25L453.65 42.35L439.7 34.25L425.3 34.25L414.65 40.4L411.05 34.25L394.1 34.25L394.1 110L414.65 110L414.65 51.8L436.55 51.8L436.55 110L457.1 110L457.1 51.8L479 51.8L479 110L499.55 110ZM76.93 239L69.36 202.47L28.15 202.47L7.48 239L-0.36 239L58.97 135.06L63.48 135.06L84.91 239L76.93 239ZM52.73 158.78L31.87 195.95L68.16 195.95L61.01 158.64Q60.06 154.25 59.02 146.46Q55.93 153.26 52.73 158.78ZM160.97 128.83L141.32 239L134.45 239L154.1 128.83L160.97 128.83ZM235.5 240.42Q218.08 240.42 212.48 227.11L211.99 227.11L211.14 233.05Q210.48 238.29 209.37 244.52L204.15 273.83L197.28 273.83L217.21 162.04L223.04 162.04L222.4 173.01L222.82 173.01Q232.81 160.55 249.88 160.55Q265.14 160.55 271.29 170.82Q277.52 181.01 274.04 200.56Q270.66 219.53 260.32 230.01Q250.07 240.42 235.5 240.42ZM236.47 234.19Q248.06 234.19 255.94 225.41Q263.89 216.63 266.7 200.84Q272.75 166.92 248.74 166.92Q235.56 166.92 228.06 174.36Q220.57 181.72 217.59 198.43L217.19 200.7Q213.97 218.75 218.49 226.47Q223.08 234.19 236.47 234.19ZM384.37 239L377.57 239L386.48 189.09Q388.55 177.47 384.69 172.23Q380.85 166.92 370.79 166.92Q357.26 166.92 349.7 173.93Q342.22 180.87 339.43 196.52L331.85 239L324.98 239L344.63 128.83L351.5 128.83L345.25 163.88L343.14 173.72L343.63 173.72Q349.1 166.78 356.11 163.67Q363.12 160.55 372.69 160.55Q398.36 160.55 393.35 188.66L384.37 239ZM496.57 239L491.5 239L491.94 226.82L491.39 226.82Q484.37 234.26 477.78 237.37Q471.27 240.42 463.08 240.42Q451.98 240.42 446.84 234.61Q441.7 228.8 443.53 218.54Q445.54 207.28 455.81 201.05Q466.15 194.82 483.63 194.47L498.06 194.04L498.97 188.94Q500.93 177.97 497.56 172.38Q494.18 166.78 484.47 166.78Q473.99 166.78 461.69 172.73L460.21 166.64Q473.69 160.69 485.83 160.69Q498.25 160.69 503.18 167.28Q508.18 173.86 505.7 187.81L496.57 239ZM464.63 234.04Q476.71 234.04 484.9 227.03Q493.17 219.95 495.4 207.42L496.75 199.85L483.47 200.41Q467.44 201.19 459.87 205.51Q452.38 209.76 450.77 218.82Q449.48 226.04 453.06 230.08Q456.72 234.04 464.63 234.04Z" />
</svg>